<?xml version="1.0" encoding="UTF-8"?>
<svg width="116px" height="52px" viewBox="0 0 116 52" version="1.1" xmlns="http://www.w3.org/2000/svg" xmlns:xlink="http://www.w3.org/1999/xlink">
    <!-- Generator: Sketch 57.1 (83088) - https://sketch.com -->
    <title>logo staysafe final</title>
    <desc>Created with Sketch.</desc>
    <g id="website" stroke="none" stroke-width="1" fill="none" fill-rule="evenodd">
        <g id="6.-website-staysafe---Hubungi-Kami" transform="translate(-185.000000, -128.000000)">
            <g id="logo-staysafe-final" transform="translate(185.000000, 128.000000)">
                <g transform="translate(0.000000, -0.000000)" id="Group">
                    <g transform="translate(52.363636, 0.000000)" fill-rule="nonzero">
                        <path d="M8.66490909,4.25037966 C6.18381818,4.25037966 4.94327273,5.06669453 4.94327273,6.69914316 C4.94327273,7.42507837 5.25054545,7.98039707 5.86509091,8.36582375 C6.47963636,8.75161268 7.91909091,9.30693138 10.1841818,10.0323232 C12.4487273,10.7582584 14.0363636,11.5798258 14.9469091,12.4981122 C15.8570909,13.4163985 16.3127273,14.8278788 16.3127273,16.7325531 C16.3127273,19.1588575 15.5729091,20.9956113 14.0934545,22.2424521 C12.6134545,23.4896552 10.6792727,24.1128945 8.28927273,24.1128945 C6.51381818,24.1128945 4.33981818,23.8408499 1.768,23.2967607 L0.538909091,23.0585859 L1.01690909,19.4194915 C4.06672727,19.8275583 6.39963636,20.0316823 8.016,20.0316823 C10.4285455,20.0316823 11.6350909,19.0340648 11.6350909,17.0386486 C11.6350909,16.3132567 11.3561818,15.7461651 10.7985455,15.3380982 C10.2405455,14.9298502 9.13090909,14.4879136 7.46963636,14.0115639 C4.82890909,13.2633507 2.96818182,12.3736816 1.88727273,11.341651 C0.806,10.3101637 0.265636364,8.87586207 0.265636364,7.03910832 C0.265636364,4.72636712 0.970909091,3.00353884 2.38254545,1.86935563 C3.79363636,0.7358969 5.72836364,0.168805294 8.18672727,0.168805294 C9.87090909,0.168805294 12.0105455,0.39575061 14.6054545,0.849097875 L15.8347273,1.08709161 L15.4592727,4.7942877 C12.2498182,4.43204458 9.98472727,4.25037966 8.66490909,4.25037966 Z" id="Path" fill="#EC1C24"></path>
                        <path d="M28.9794545,10.5764124 L24.78,10.5764124 L24.78,17.548868 C24.78,18.2289794 24.7970909,18.7109439 24.8310909,18.994218 C24.8652727,19.2778544 24.99,19.5212818 25.2065455,19.7254058 C25.4225455,19.9295298 25.7581818,20.0315012 26.2138182,20.0315012 L28.8085455,19.9633995 L29.0132727,23.602675 C27.4881818,23.9428213 26.3274545,24.1127133 25.5309091,24.1127133 C23.4823636,24.1127133 22.0825455,23.6537513 21.3312727,22.735465 C20.5801818,21.8171787 20.2047273,20.1224242 20.2047273,17.6506583 L20.2047273,10.5762313 L18.1903636,10.5762313 L18.1903636,6.69896203 L20.2047273,6.69896203 L20.2047273,1.97132706 L24.7798182,1.97132706 L24.7798182,6.69896203 L28.9792727,6.69896203 L28.9792727,10.5764124 L28.9794545,10.5764124 Z" id="Path" fill="#EC1C24"></path>
                        <path d="M45.0263636,12.0049181 L45.0263636,19.0793452 C45.0716364,19.6234343 45.1629091,20.0034274 45.2994545,20.2185998 C45.436,20.4343156 45.7203636,20.5873633 46.1529091,20.6777429 L46.0163636,24.1128945 C44.8554545,24.1128945 43.928,24.0333821 43.2338182,23.8749007 C42.5392727,23.7160571 41.8392727,23.3987321 41.134,22.9225636 C39.4950909,23.7160571 37.8221818,24.1128945 36.1150909,24.1128945 C32.5867273,24.1128945 30.8230909,22.2540439 30.8230909,18.5350749 C30.8230909,16.7213236 31.3123636,15.4348171 32.2912727,14.6748311 C33.2696364,13.9153884 34.772,13.4674747 36.798,13.3314525 L40.4512727,13.0594079 L40.4512727,12.0050993 C40.4512727,11.3025287 40.2918182,10.8205643 39.9732727,10.5595681 C39.6541818,10.2991153 39.1421818,10.1685266 38.4369091,10.1685266 L32.0181818,10.4405712 L31.8814545,7.2774643 C34.3169091,6.62017416 36.6327273,6.2912574 38.8294545,6.2912574 C41.0258182,6.2912574 42.6074545,6.74496691 43.5754545,7.65166144 C44.5425455,8.55871822 45.0263636,10.0100453 45.0263636,12.0049181 Z M37.3443636,16.4945594 C36.0692727,16.6083037 35.4321818,17.2884152 35.4321818,18.535256 C35.4321818,19.7826402 35.9896364,20.4058795 37.1052727,20.4058795 C37.97,20.4058795 38.9147273,20.2698572 39.9390909,19.9976315 L40.4510909,19.8616092 L40.4510909,16.2223337 L37.3443636,16.4945594 Z" id="Shape" fill="#EC1C24"></path>
                        <polygon id="Path" fill="#EC1C24" points="47.5870909 6.69914316 52.0938182 6.69914316 55.2007273 19.8275583 55.986 19.8275583 59.0929091 6.69914316 63.5996364 6.69914316 57.5905455 30.8473563 53.1181818 30.8473563 54.9958182 23.7048276 51.7865455 23.7048276"></polygon>
                        <path d="M8.47745455,32.0009195 C5.99636364,32.0009195 4.75581818,32.8172344 4.75581818,34.4498642 C4.75581818,35.1757994 5.06309091,35.7311181 5.67763636,36.1163636 C6.29218182,36.5023337 7.73163636,37.0574713 9.99672727,37.7830442 C12.2612727,38.5089794 13.8489091,39.3305468 14.7594545,40.2488332 C15.6696364,41.1669383 16.1252727,42.5784187 16.1252727,44.4832741 C16.1252727,46.9095785 15.3854545,48.7463323 13.906,49.9931731 C12.426,51.2403762 10.4918182,51.8636155 8.10181818,51.8636155 C6.32636364,51.8636155 4.15236364,51.5915709 1.58054545,51.0474817 L0.351454545,50.8093069 L0.829454545,47.1702125 C3.87927273,47.5782793 6.21218182,47.7824033 7.82854545,47.7824033 C10.2410909,47.7824033 11.4476364,46.7847858 11.4476364,44.7893696 C11.4476364,44.0639777 11.1687273,43.4968861 10.6110909,43.0888192 C10.0530909,42.6805712 8.94345455,42.2386346 7.28218182,41.7622849 C4.64145455,41.0140718 2.78072727,40.1245838 1.69981818,39.0925531 C0.618545455,38.0610658 0.0781818182,36.6267642 0.0781818182,34.7900104 C0.0781818182,32.4770881 0.783454545,30.754441 2.19509091,29.6202577 C3.60618182,28.4866179 5.54090909,27.9197074 7.99927273,27.9197074 C9.68345455,27.9197074 11.8230909,28.1466527 14.418,28.5998189 L15.6472727,28.8378126 L15.2718182,32.5451898 C12.0623636,32.1827656 9.79727273,32.0009195 8.47745455,32.0009195 Z" id="Path" fill="#30C670"></path>
                        <path d="M32.5818182,39.7556392 L32.5818182,46.8302473 C32.6270909,47.3743365 32.7183636,47.7543295 32.8549091,47.9695019 C32.9914545,48.1852177 33.2758182,48.3382654 33.7083636,48.4286451 L33.5718182,51.8637966 C32.4109091,51.8637966 31.4834545,51.7842842 30.7892727,51.6258029 C30.0947273,51.4669592 29.3947273,51.1496343 28.6894545,50.6734657 C27.0505455,51.4669592 25.3776364,51.8637966 23.6705455,51.8637966 C20.1421818,51.8637966 18.3785455,50.004946 18.3785455,46.285977 C18.3785455,44.4722257 18.8678182,43.1857193 19.8467273,42.4257332 C20.8250909,41.6664716 22.3274545,41.2183769 24.3534545,41.0823546 L28.0067273,40.8101289 L28.0067273,39.7558203 C28.0067273,39.0532497 27.8472727,38.5712853 27.5287273,38.3104702 C27.2096364,38.0500174 26.6976364,37.9194288 25.9923636,37.9194288 L19.5736364,38.1914734 L19.4369091,35.0283664 C21.8723636,34.3710763 24.1881818,34.0421595 26.3849091,34.0421595 C28.5812727,34.0421595 30.1629091,34.4960502 31.1309091,35.4025636 C32.098,36.3092581 32.5818182,37.7605852 32.5818182,39.7556392 Z M24.8998182,44.2452804 C23.6247273,44.3590247 22.9876364,45.0391362 22.9876364,46.285977 C22.9876364,47.5333612 23.5450909,48.1566005 24.6607273,48.1566005 C25.5254545,48.1566005 26.4701818,48.0205782 27.4945455,47.7483525 L28.0065455,47.6123302 L28.0065455,43.9730547 L24.8998182,44.2452804 Z" id="Shape" fill="#30C670"></path>
                        <path d="M42.346,38.3271334 L42.346,51.4555486 L37.7709091,51.4555486 L37.7709091,38.3271334 L35.9270909,38.3271334 L35.9270909,34.4498642 L37.7709091,34.4498642 L37.7709091,33.701651 C37.7709091,31.2527064 38.1347273,29.5639289 38.8634545,28.6340509 C39.5916364,27.704535 40.8890909,27.239596 42.7556364,27.239596 C43.5750909,27.239596 44.6334545,27.3533403 45.9309091,27.5797423 L46.6478182,27.6817137 L46.5796364,31.3889098 C45.5776364,31.3438105 44.7358182,31.3209892 44.0530909,31.3209892 C43.3703636,31.3209892 42.9147273,31.5026541 42.6874545,31.8650784 C42.4596364,32.228046 42.346,32.8514664 42.346,33.7357018 L42.346,34.4498642 L46.4772727,34.4498642 L46.4772727,38.3271334 L42.346,38.3271334 L42.346,38.3271334 Z" id="Path" fill="#30C670"></path>
                        <path d="M53.5958182,47.1530059 C54.1301818,47.617945 54.8985455,47.8503239 55.9003636,47.8503239 C58.0172727,47.8503239 59.9061818,47.7824033 61.5681818,47.6463811 L62.5241818,47.5444096 L62.5923636,50.9114594 C59.9747273,51.5461094 57.6076364,51.8637966 55.4907273,51.8637966 C52.9183636,51.8637966 51.0521818,51.1836851 49.8912727,49.8231 C48.7305455,48.4626959 48.1501818,46.2519262 48.1501818,43.1909718 C48.1501818,37.0917032 50.6649091,34.0417973 55.6956364,34.0417973 C60.6574545,34.0417973 63.1387273,36.6043051 63.1387273,41.7282341 L62.7972727,44.891341 L52.7594545,44.891341 C52.7816364,45.9346012 53.0605455,46.6886102 53.5958182,47.1530059 Z M58.6318182,41.4223197 C58.6318182,40.0617346 58.4152727,39.1153744 57.9830909,38.5821526 C57.5503636,38.0498363 56.7934545,37.7830442 55.7127273,37.7830442 C54.6314545,37.7830442 53.8689091,38.0608847 53.4250909,38.6163845 C52.9814545,39.1720655 52.7476364,40.1073772 52.7252727,41.4223197 L58.6318182,41.4223197 L58.6318182,41.4223197 Z" id="Shape" fill="#30C670"></path>
                    </g>
                    <g transform="translate(0.000000, 0.181122)" fill-rule="nonzero">
                        <path d="M39.1534545,6.70512017 C34.8234545,2.39171021 29.0661818,0.0161198189 22.9425455,0.0161198189 C16.8189091,0.0161198189 11.0616364,2.39171021 6.73163636,6.70512017 C2.40145455,11.0187113 0.0167272727,16.7537443 0.0167272727,22.8540996 C0.0167272727,33.6161616 7.56945455,42.9073354 18.0618182,45.1715361 L22.9425455,51.6542389 L27.8232727,45.1715361 C38.3156364,42.9073354 45.8683636,33.6161616 45.8683636,22.8540996 C45.8683636,16.7539255 43.4836364,11.0187113 39.1534545,6.70512017 Z" id="Path" fill="#EC1C24"></path>
                        <g transform="translate(9.636364, 8.512713)" fill="#FFFFFF" id="Path">
                            <path d="M25.3496364,13.1631905 C24.6847273,13.1631905 24.1452727,12.6258029 24.1452727,11.9634413 C24.1452727,8.59820272 22.83,5.43563915 20.4418182,3.0553396 C19.9710909,2.58641588 19.9710909,1.82824103 20.4418182,1.35895507 C20.9125455,0.890031348 21.6738182,0.890031348 22.1447273,1.35895507 C24.9883636,4.19151515 26.5538182,7.95757576 26.5538182,11.9634413 C26.5538182,12.6258029 26.0145455,13.1631905 25.3496364,13.1631905 Z"></path>
                            <path d="M1.26254545,13.1631905 C0.597818182,13.1631905 0.0581818182,12.6258029 0.0581818182,11.9634413 C0.0581818182,7.95757576 1.62381818,4.19151515 4.46727273,1.35895507 C4.938,0.890031348 5.69927273,0.890031348 6.17018182,1.35895507 C6.64127273,1.82824103 6.64127273,2.58623476 6.17018182,3.0553396 C3.782,5.4343713 2.46690909,8.59820272 2.46690909,11.9634413 C2.46709091,12.6258029 1.92745455,13.1631905 1.26254545,13.1631905 Z"></path>
                            <path d="M24.6018182,20.3989969 C22.7807273,18.8656217 21.7365455,16.6244235 21.7365455,14.2502821 L21.7365455,10.9053292 C21.7365455,6.6835667 18.5883636,3.18864507 14.5105455,2.60326019 L14.5105455,1.30733542 C14.5105455,0.643887147 13.9709091,0.107586207 13.3061818,0.107586207 C12.6412727,0.107586207 12.1016364,0.643887147 12.1016364,1.30733542 L12.1016364,2.60326019 C8.02254545,3.18864507 4.87563636,6.6835667 4.87563636,10.9053292 L4.87563636,14.250101 C4.87563636,16.6244235 3.83145455,18.8654406 1.99981818,20.4084152 C1.53127273,20.8079693 1.26254545,21.3886451 1.26254545,22.0028283 C1.26254545,23.1607384 2.208,24.1025705 3.37036364,24.1025705 L23.242,24.1025705 C24.4041818,24.1025705 25.3494546,23.1607384 25.3494546,22.0028283 C25.3494546,21.3886451 25.0810909,20.8079693 24.6018182,20.3989969 Z"></path>
                            <path d="M13.3061818,28.9013863 C15.4870909,28.9013863 17.3118182,27.3524347 17.7309091,25.3021386 L8.88127273,25.3021386 C9.30036364,27.3524347 11.1250909,28.9013863 13.3061818,28.9013863 Z"></path>
                        </g>
                    </g>
                </g>
            </g>
        </g>
    </g>
</svg>